<svg width="25" height="25" viewBox="0 0 25 25" fill="none" xmlns="http://www.w3.org/2000/svg">
<path d="M18.1429 1.35718H6.14286C3.30254 1.35718 1 3.65971 1 6.50003V18.5C1 21.3404 3.30254 23.6429 6.14286 23.6429H18.1429C20.9832 23.6429 23.2857 21.3404 23.2857 18.5V6.50003C23.2857 3.65971 20.9832 1.35718 18.1429 1.35718Z" stroke="black" stroke-width="2" stroke-linecap="round" stroke-linejoin="round"/>
<path d="M7 14.2143L10.5143 17.0257C10.6087 17.1035 10.7192 17.1592 10.8378 17.1888C10.9564 17.2185 11.0801 17.2213 11.2 17.1972C11.321 17.1745 11.4357 17.126 11.5363 17.055C11.6368 16.984 11.721 16.8922 11.7829 16.7857L17.2857 7.35718" stroke="black" stroke-width="2" stroke-linecap="round" stroke-linejoin="round"/>
</svg>
