<svg width="25" height="23" viewBox="0 0 25 23" fill="none" xmlns="http://www.w3.org/2000/svg">
<path d="M8.71456 8.92864C10.8448 8.92864 12.5717 7.20174 12.5717 5.0715C12.5717 2.94126 10.8448 1.21436 8.71456 1.21436C6.58432 1.21436 4.85742 2.94126 4.85742 5.0715C4.85742 7.20174 6.58432 8.92864 8.71456 8.92864Z" stroke="black" stroke-width="2" stroke-linecap="round" stroke-linejoin="round"/>
<path d="M16.4286 21.7855H1V20.0712C1 18.0253 1.81275 16.0631 3.25946 14.6164C4.70617 13.1697 6.66833 12.3569 8.71429 12.3569C10.7602 12.3569 12.7224 13.1697 14.1691 14.6164C15.6158 16.0631 16.4286 18.0253 16.4286 20.0712V21.7855Z" stroke="black" stroke-width="2" stroke-linecap="round" stroke-linejoin="round"/>
<path d="M15.5713 1.21436C16.5943 1.21436 17.5753 1.62073 18.2987 2.34409C19.0221 3.06744 19.4284 4.04852 19.4284 5.0715C19.4284 6.09448 19.0221 7.07556 18.2987 7.79891C17.5753 8.52226 16.5943 8.92864 15.5713 8.92864" stroke="black" stroke-width="2" stroke-linecap="round" stroke-linejoin="round"/>
<path d="M18.3145 12.6829C19.7747 13.2384 21.0319 14.2242 21.9197 15.5099C22.8074 16.7956 23.2838 18.3205 23.2859 19.8829V21.7857H20.7145" stroke="black" stroke-width="2" stroke-linecap="round" stroke-linejoin="round"/>
</svg>
