<svg width="25" height="26" viewBox="0 0 25 26" fill="none" xmlns="http://www.w3.org/2000/svg">
<path d="M11.2695 12.9998H23.2695" stroke="#E71515" stroke-width="2" stroke-linecap="round" stroke-linejoin="round"/>
<path d="M19.8408 9.57129L23.2694 12.9999L19.8408 16.4284" stroke="#E71515" stroke-width="2" stroke-linecap="round" stroke-linejoin="round"/>
<path d="M20.1836 20.697C18.6442 22.3015 16.66 23.4087 14.4863 23.8764C12.3125 24.344 10.0485 24.1506 7.98553 23.321C5.92257 22.4914 4.15497 21.0636 2.9101 19.2212C1.66522 17.3789 1 15.2062 1 12.9827C1 10.7592 1.66522 8.58653 2.9101 6.74417C4.15497 4.9018 5.92257 3.47401 7.98553 2.64443C10.0485 1.81485 12.3125 1.62143 14.4863 2.08905C16.66 2.55666 18.6442 3.66393 20.1836 5.26842" stroke="#E71515" stroke-width="2" stroke-linecap="round" stroke-linejoin="round"/>
</svg>
