<svg width="29" height="29" viewBox="0 0 29 29" fill="none" xmlns="http://www.w3.org/2000/svg">
<path d="M15 18.0116L9 19.0916L10 13.0116L21.46 1.5916C21.6459 1.40414 21.8671 1.25535 22.1108 1.15381C22.3546 1.05228 22.616 1 22.88 1C23.144 1 23.4054 1.05228 23.6492 1.15381C23.8929 1.25535 24.1141 1.40414 24.3 1.5916L26.42 3.7116C26.6075 3.89752 26.7562 4.11872 26.8578 4.36244C26.9593 4.60616 27.0116 4.86757 27.0116 5.1316C27.0116 5.39562 26.9593 5.65703 26.8578 5.90075C26.7562 6.14447 26.6075 6.36567 26.42 6.5516L15 18.0116Z" stroke="black" stroke-width="2" stroke-linecap="round" stroke-linejoin="round"/>
<path d="M24 19.0116V25.0116C24 25.542 23.7893 26.0507 23.4142 26.4258C23.0391 26.8009 22.5304 27.0116 22 27.0116H3C2.46957 27.0116 1.96086 26.8009 1.58579 26.4258C1.21071 26.0507 1 25.542 1 25.0116V6.0116C1 5.48116 1.21071 4.97246 1.58579 4.59738C1.96086 4.22231 2.46957 4.0116 3 4.0116H9" stroke="black" stroke-width="2" stroke-linecap="round" stroke-linejoin="round"/>
</svg>
