<svg width="25" height="25" viewBox="0 0 25 25" fill="none" xmlns="http://www.w3.org/2000/svg">
<path d="M10.429 5.64331H7.00042C6.05364 5.64331 5.28613 6.41082 5.28613 7.3576V10.7862C5.28613 11.7329 6.05364 12.5005 7.00042 12.5005H10.429C11.3758 12.5005 12.1433 11.7329 12.1433 10.7862V7.3576C12.1433 6.41082 11.3758 5.64331 10.429 5.64331Z" stroke="black" stroke-width="2" stroke-linecap="round" stroke-linejoin="round"/>
<path d="M5.28571 1.35718H2.71429C2.25963 1.35718 1.82359 1.53779 1.5021 1.85928C1.18061 2.18077 1 2.61681 1 3.07146V5.64289" stroke="black" stroke-width="2" stroke-linecap="round" stroke-linejoin="round"/>
<path d="M19 1.35718H21.5714C22.0261 1.35718 22.4621 1.53779 22.7836 1.85928C23.1051 2.18077 23.2857 2.61681 23.2857 3.07146V5.64289" stroke="black" stroke-width="2" stroke-linecap="round" stroke-linejoin="round"/>
<path d="M5.28571 23.6429H2.71429C2.25963 23.6429 1.82359 23.4623 1.5021 23.1408C1.18061 22.8193 1 22.3833 1 21.9286V19.3572" stroke="black" stroke-width="2" stroke-linecap="round" stroke-linejoin="round"/>
<path d="M19 23.6429H21.5714C22.0261 23.6429 22.4621 23.4623 22.7836 23.1408C23.1051 22.8193 23.2857 22.3833 23.2857 21.9286V19.3572" stroke="black" stroke-width="2" stroke-linecap="round" stroke-linejoin="round"/>
<path d="M5.28613 16.7858V19.3572H7.85756" stroke="black" stroke-width="2" stroke-linecap="round" stroke-linejoin="round"/>
<path d="M12.1427 19.3572V16.7858H9.57129" stroke="black" stroke-width="2" stroke-linecap="round" stroke-linejoin="round"/>
<path d="M19.0001 8.21474H16.4287V5.64331" stroke="black" stroke-width="2" stroke-linecap="round" stroke-linejoin="round"/>
<path d="M19.0001 14.2147V11.6433H16.4287" stroke="black" stroke-width="2" stroke-linecap="round" stroke-linejoin="round"/>
<path d="M16.4287 16.7858V19.3572H19.0001" stroke="black" stroke-width="2" stroke-linecap="round" stroke-linejoin="round"/>
</svg>
