<svg width="25" height="25" viewBox="0 0 25 25" fill="none" xmlns="http://www.w3.org/2000/svg">
<path d="M6.14258 23.6429L11.5254 11.0772C11.5762 10.9554 11.6619 10.8513 11.7717 10.7781C11.8815 10.7048 12.0106 10.6658 12.1426 10.6658C12.2746 10.6658 12.4036 10.7048 12.5134 10.7781C12.6233 10.8513 12.709 10.9554 12.7597 11.0772L18.1426 23.6429" stroke="black" stroke-width="2" stroke-linecap="round" stroke-linejoin="round"/>
<path d="M8.55957 18.0029H15.7253" stroke="black" stroke-width="2" stroke-linecap="round" stroke-linejoin="round"/>
<path d="M1 7.35718C1 5.76588 1.63214 4.23976 2.75736 3.11454C3.88258 1.98932 5.4087 1.35718 7 1.35718" stroke="black" stroke-width="2" stroke-linecap="round" stroke-linejoin="round"/>
<path d="M1 7.35718C1 5.76588 1.63214 4.23976 2.75736 3.11454C3.88258 1.98932 5.4087 1.35718 7 1.35718" stroke="black" stroke-width="2" stroke-linecap="round" stroke-linejoin="round"/>
<path d="M5.28613 7.3576C5.28613 6.90294 5.46674 6.4669 5.78824 6.14541C6.10973 5.82392 6.54576 5.64331 7.00042 5.64331" stroke="black" stroke-width="2" stroke-linecap="round" stroke-linejoin="round"/>
<path d="M5.28613 7.3576C5.28613 6.90294 5.46674 6.4669 5.78824 6.14541C6.10973 5.82392 6.54576 5.64331 7.00042 5.64331" stroke="black" stroke-width="2" stroke-linecap="round" stroke-linejoin="round"/>
<path d="M17.2861 1.35718C18.8774 1.35718 20.4036 1.98932 21.5288 3.11454C22.654 4.23976 23.2861 5.76588 23.2861 7.35718" stroke="black" stroke-width="2" stroke-linecap="round" stroke-linejoin="round"/>
<path d="M17.2861 1.35718C18.8774 1.35718 20.4036 1.98932 21.5288 3.11454C22.654 4.23976 23.2861 5.76588 23.2861 7.35718" stroke="black" stroke-width="2" stroke-linecap="round" stroke-linejoin="round"/>
<path d="M17.2861 5.64331C17.7408 5.64331 18.1768 5.82392 18.4983 6.14541C18.8198 6.4669 19.0004 6.90294 19.0004 7.3576" stroke="black" stroke-width="2" stroke-linecap="round" stroke-linejoin="round"/>
<path d="M17.2861 5.64331C17.7408 5.64331 18.1768 5.82392 18.4983 6.14541C18.8198 6.4669 19.0004 6.90294 19.0004 7.3576" stroke="black" stroke-width="2" stroke-linecap="round" stroke-linejoin="round"/>
</svg>
