<svg width="25" height="17" viewBox="0 0 25 17" fill="none" xmlns="http://www.w3.org/2000/svg">
<path d="M22.8017 7.35139C23.086 7.6664 23.2433 8.07564 23.2433 8.49997C23.2433 8.92429 23.086 9.33354 22.8017 9.64854C21.0017 11.5857 16.9045 15.3571 12.1217 15.3571C7.33881 15.3571 3.24167 11.5857 1.44167 9.64854C1.15737 9.33354 1 8.92429 1 8.49997C1 8.07564 1.15737 7.6664 1.44167 7.35139C3.24167 5.41425 7.33881 1.64282 12.1217 1.64282C16.9045 1.64282 21.0017 5.41425 22.8017 7.35139Z" stroke="black" stroke-width="2" stroke-linecap="round" stroke-linejoin="round"/>
<path d="M12.1219 11.9286C14.0155 11.9286 15.5505 10.3935 15.5505 8.49998C15.5505 6.60643 14.0155 5.07141 12.1219 5.07141C10.2284 5.07141 8.69336 6.60643 8.69336 8.49998C8.69336 10.3935 10.2284 11.9286 12.1219 11.9286Z" stroke="black" stroke-width="2" stroke-linecap="round" stroke-linejoin="round"/>
</svg>
