<svg width="25" height="19" viewBox="0 0 25 19" fill="none" xmlns="http://www.w3.org/2000/svg">
<path d="M22.12 3.92862L17.2857 6.07148V3.50005C17.2857 3.0454 17.1051 2.60936 16.7836 2.28787C16.4621 1.96638 16.0261 1.78577 15.5714 1.78577H2.71429C2.25963 1.78577 1.82359 1.96638 1.5021 2.28787C1.18061 2.60936 1 3.0454 1 3.50005V15.5001C1 15.9547 1.18061 16.3907 1.5021 16.7122C1.82359 17.0337 2.25963 17.2143 2.71429 17.2143H15.5714C16.0261 17.2143 16.4621 17.0337 16.7836 16.7122C17.1051 16.3907 17.2857 15.9547 17.2857 15.5001V12.9286L22.12 15.0715C22.2503 15.1218 22.391 15.1395 22.5297 15.123C22.6684 15.1065 22.801 15.0564 22.9159 14.9769C23.0309 14.8975 23.1246 14.7912 23.1891 14.6672C23.2535 14.5433 23.2867 14.4055 23.2857 14.2658V4.73434C23.2867 4.59464 23.2535 4.45682 23.1891 4.33287C23.1246 4.20893 23.0309 4.10261 22.9159 4.02318C22.801 3.94375 22.6684 3.89361 22.5297 3.87713C22.391 3.86065 22.2503 3.87833 22.12 3.92862Z" stroke="black" stroke-width="2" stroke-linecap="round" stroke-linejoin="round"/>
</svg>
