<svg width="23" height="28" viewBox="0 0 23 28" fill="none" xmlns="http://www.w3.org/2000/svg">
<path d="M18.2729 12.26C19.2748 12.4595 20.1624 13.0347 20.7537 13.8677C21.3449 14.7007 21.5951 15.7284 21.4529 16.74L20.2329 25.28C20.165 25.7606 19.9246 26.2 19.5566 26.5165C19.1887 26.8329 18.7182 27.0048 18.2329 27H5.27288C4.87232 27.0004 4.48087 26.8805 4.14924 26.6558C3.81762 26.4312 3.56108 26.1121 3.41288 25.74L1.27288 20.42C0.906584 19.4798 0.909143 18.4359 1.28004 17.4976C1.65094 16.5592 2.36277 15.7957 3.27288 15.36L5.97288 14V4C5.97288 3.20435 6.28895 2.44129 6.85156 1.87868C7.41417 1.31607 8.17723 1 8.97288 1C9.76853 1 10.5316 1.31607 11.0942 1.87868C11.6568 2.44129 11.9729 3.20435 11.9729 4V11L18.2729 12.26Z" stroke="black" stroke-width="2" stroke-linecap="round" stroke-linejoin="round"/>
</svg>
