<svg width="25" height="25" viewBox="0 0 25 25" fill="none" xmlns="http://www.w3.org/2000/svg">
<path d="M1 23.6479H19.8571" stroke="black" stroke-width="2" stroke-linecap="round" stroke-linejoin="round"/>
<path d="M11.2854 17.6477L6.14258 18.5734L6.99972 13.362L18.5369 1.85913C18.6962 1.69846 18.8858 1.57092 19.0947 1.48389C19.3036 1.39686 19.5277 1.35205 19.754 1.35205C19.9803 1.35205 20.2044 1.39686 20.4133 1.48389C20.6222 1.57092 20.8118 1.69846 20.9711 1.85913L22.7883 3.67628C22.949 3.83564 23.0765 4.02524 23.1635 4.23415C23.2506 4.44305 23.2954 4.66711 23.2954 4.89342C23.2954 5.11973 23.2506 5.34379 23.1635 5.55269C23.0765 5.76159 22.949 5.9512 22.7883 6.11056L11.2854 17.6477Z" stroke="black" stroke-width="2" stroke-linecap="round" stroke-linejoin="round"/>
</svg>
