<svg width="18" height="21" viewBox="0 0 18 21" fill="none" xmlns="http://www.w3.org/2000/svg">
<mask id="path-1-inside-1_964_281" fill="white">
<path fill-rule="evenodd" clip-rule="evenodd" d="M14.5617 5.61349C14.5617 8.71374 12.1854 11.227 9.2542 11.227C6.32297 11.227 3.94672 8.71374 3.94672 5.61349C3.94672 2.51325 6.32297 0 9.2542 0C12.1854 0 14.5617 2.51325 14.5617 5.61349Z"/>
<path d="M0.846881 19.5252C0.706045 20.0133 0.846998 20.5015 1.30839 20.5015H17.4616C18.0222 20.5015 18.0641 20.0133 17.9232 19.5252C16.8268 15.7258 13.2052 12.6914 9.25419 12.6914C5.30313 12.6914 1.94332 15.7258 0.846881 19.5252Z"/>
</mask>
<path fill-rule="evenodd" clip-rule="evenodd" d="M14.5617 5.61349C14.5617 8.71374 12.1854 11.227 9.2542 11.227C6.32297 11.227 3.94672 8.71374 3.94672 5.61349C3.94672 2.51325 6.32297 0 9.2542 0C12.1854 0 14.5617 2.51325 14.5617 5.61349Z" fill="#752FFF"/>
<path d="M0.846881 19.5252C0.706045 20.0133 0.846998 20.5015 1.30839 20.5015H17.4616C18.0222 20.5015 18.0641 20.0133 17.9232 19.5252C16.8268 15.7258 13.2052 12.6914 9.25419 12.6914C5.30313 12.6914 1.94332 15.7258 0.846881 19.5252Z" fill="#752FFF"/>
<path d="M0.846881 19.5252L-1.0747 18.9707L-1.07474 18.9708L0.846881 19.5252ZM17.9232 19.5252L19.8448 18.9707L17.9232 19.5252ZM9.2542 13.227C13.3942 13.227 16.5617 9.7112 16.5617 5.61349H12.5617C12.5617 7.71628 10.9767 9.22698 9.2542 9.22698V13.227ZM1.94672 5.61349C1.94672 9.7112 5.11425 13.227 9.2542 13.227V9.22698C7.53169 9.22698 5.94672 7.71628 5.94672 5.61349H1.94672ZM9.2542 -2C5.11425 -2 1.94672 1.51579 1.94672 5.61349H5.94672C5.94672 3.51071 7.53169 2 9.2542 2V-2ZM16.5617 5.61349C16.5617 1.51579 13.3942 -2 9.2542 -2V2C10.9767 2 12.5617 3.5107 12.5617 5.61349H16.5617ZM1.30839 18.5015C1.56071 18.5015 1.87704 18.5739 2.17253 18.7817C2.45884 18.9831 2.61967 19.2368 2.70139 19.4354C2.84715 19.7897 2.78199 20.0328 2.7685 20.0796L-1.07474 18.9708C-1.22907 19.5057 -1.29417 20.2369 -0.997789 20.9573C-0.840767 21.339 -0.566982 21.7452 -0.128879 22.0534C0.318399 22.368 0.825374 22.5015 1.30839 22.5015V18.5015ZM17.4616 22.5015C17.8881 22.5015 18.4079 22.4074 18.8948 22.0847C19.3969 21.752 19.695 21.288 19.8468 20.8467C20.1118 20.076 19.9524 19.3433 19.8448 18.9707L16.0016 20.0797C16.007 20.0983 15.9973 20.073 15.9932 20.0079C15.9897 19.9513 15.9846 19.7774 16.0642 19.546C16.153 19.2878 16.3443 18.9763 16.6852 18.7504C17.011 18.5345 17.3153 18.5015 17.4616 18.5015V22.5015ZM19.8448 18.9707C18.5312 14.4186 14.1994 10.6914 9.25419 10.6914V14.6914C12.2111 14.6914 15.1224 17.033 16.0016 20.0797L19.8448 18.9707ZM2.76847 20.0797C3.66854 16.9608 6.36446 14.6914 9.25419 14.6914V10.6914C4.2418 10.6914 0.218111 14.4908 -1.0747 18.9707L2.76847 20.0797ZM17.4616 18.5015H1.30839V22.5015H17.4616V18.5015Z" fill="#752FFF" mask="url(#path-1-inside-1_964_281)"/>
</svg>
