<svg width="21" height="24" viewBox="0 0 21 24" fill="none" xmlns="http://www.w3.org/2000/svg">
<path d="M15.2175 7.09603C15.2175 10.0849 12.9269 12.4201 10.2068 12.4201C7.48675 12.4201 5.19609 10.0849 5.19609 7.09603C5.19609 4.10714 7.48675 1.77197 10.2068 1.77197C12.9269 1.77197 15.2175 4.10714 15.2175 7.09603ZM1.62715 23.1812C1.62714 23.1812 1.62708 23.1808 1.62699 23.18L1.62715 23.1812ZM1.69958 22.8685C2.89374 19.0182 6.31936 16.0698 10.2068 16.0698C14.1268 16.0698 17.8174 19.0522 19.0102 22.8685H1.69958ZM19.1017 23.2578C19.1017 23.2578 19.1017 23.2571 19.1019 23.2557L19.1017 23.2578Z" stroke="#979797" stroke-width="2"/>
</svg>
