<svg width="23" height="23" viewBox="0 0 23 23" fill="none" xmlns="http://www.w3.org/2000/svg">
<path fill-rule="evenodd" clip-rule="evenodd" d="M15.8971 17.6178C14.3402 18.7724 12.4079 19.4564 10.3143 19.4564C5.16045 19.4564 0.982208 15.3119 0.982208 10.1996C0.982208 5.08737 5.16045 0.942871 10.3143 0.942871C15.4682 0.942871 19.6465 5.08737 19.6465 10.1996C19.6465 12.494 18.805 14.5935 17.4114 16.2109L22.0225 20.7847C22.2251 20.9856 22.2251 21.3113 22.0225 21.5119L21.2894 22.2394C21.0869 22.4403 20.7586 22.4403 20.5563 22.2394L15.8971 17.6178ZM17.5727 10.1996C17.5727 14.1759 14.323 17.3993 10.3143 17.3993C6.30571 17.3993 3.05602 14.1759 3.05602 10.1996C3.05602 6.22337 6.30571 2.99993 10.3143 2.99993C14.323 2.99993 17.5727 6.22337 17.5727 10.1996Z" fill="#979797"/>
</svg>
