<svg width="39" height="34" viewBox="0 0 39 34" fill="none" xmlns="http://www.w3.org/2000/svg">
<circle cx="19.5582" cy="16.8404" r="14.8277" stroke="white" stroke-width="3"/>
<path d="M10.947 20.2734C8.64643 19.8646 29.0958 20.2734 28.329 20.7392C28.329 21.6707 23.3258 25.7234 19.6379 25.6302C16.0353 25.5392 11.4582 22.3695 10.947 20.2734Z" stroke="white" stroke-width="3"/>
<path d="M10.7664 10.6325L16.4863 12.9313" stroke="white" stroke-width="3" stroke-linecap="round"/>
<path d="M10.7665 15.333L16.2926 13.0718" stroke="white" stroke-width="3" stroke-linecap="round"/>
<path d="M27.9506 16.0269L22.3215 13.514" stroke="white" stroke-width="3" stroke-linecap="round"/>
<path d="M28.1278 11.3295L22.5203 13.3807" stroke="white" stroke-width="3" stroke-linecap="round"/>
<path d="M2.72809 15.5841C3.98418 14.5793 6.49602 14.4119 8.00319 14.3281C8.00319 15.0817 7.24964 18.8496 5.74247 19.6032C5.24008 19.8544 3.23048 20.1056 2.47689 18.8496C1.72331 17.5937 1.7473 16.3687 2.72809 15.5841Z" fill="white" stroke="white" stroke-width="3"/>
<path d="M32.7109 19.424C31.6847 18.1854 31.474 15.6768 31.3644 14.1713C32.1179 14.1583 35.8982 14.847 36.6776 16.341C36.9374 16.839 37.2231 18.844 35.9803 19.619C34.7374 20.3941 33.5122 20.3912 32.7109 19.424Z" fill="white" stroke="white" stroke-width="3"/>
</svg>
