<svg width="25" height="23" viewBox="0 0 25 23" fill="none" xmlns="http://www.w3.org/2000/svg">
<path fill-rule="evenodd" clip-rule="evenodd" d="M13.0388 1.12166C12.7504 0.883274 12.3315 0.883272 12.0431 1.12166L0.866296 10.3604C0.121265 10.9763 0.560293 12.1791 1.53011 12.1791H3.2341L3.65404 20.5101C3.70923 21.6049 4.62018 22.4644 5.72526 22.4644H19.3567C20.4617 22.4644 21.3727 21.6049 21.4279 20.5101L21.8478 12.1791H23.5518C24.5216 12.1791 24.9607 10.9763 24.2156 10.3604L13.0388 1.12166ZM5.23144 10.6106C5.21764 10.3369 4.9899 10.1221 4.71363 10.1221H4.39409L12.541 3.38782L20.6878 10.1221H20.3683C20.092 10.1221 19.8643 10.3369 19.8505 10.6106L19.3567 20.4073H13.4524V14.828C13.4524 14.544 13.2203 14.3137 12.934 14.3137H11.8971C11.6107 14.3137 11.3786 14.544 11.3786 14.828V20.4073H6.21844C5.94217 20.4073 5.71443 20.1925 5.70063 19.9188L5.23144 10.6106Z" fill="#8950F8"/>
</svg>
