<svg width="35" height="35" viewBox="0 0 35 35" fill="none" xmlns="http://www.w3.org/2000/svg">
<path d="M10.034 15.7275L15.7007 2.97754C16.8279 2.97754 17.9089 3.42531 18.7059 4.22234C19.5029 5.01936 19.9507 6.10037 19.9507 7.22754V12.8942H27.969C28.3797 12.8896 28.7865 12.9743 29.1612 13.1424C29.536 13.3106 29.8696 13.5582 30.1391 13.8682C30.4087 14.1781 30.6076 14.543 30.7221 14.9374C30.8366 15.3318 30.864 15.7465 30.8023 16.1525L28.8473 28.9025C28.7449 29.5782 28.4017 30.194 27.881 30.6365C27.3604 31.0791 26.6973 31.3186 26.014 31.3109H10.034M10.034 15.7275V31.3109M10.034 15.7275H5.78402C5.03257 15.7275 4.3119 16.026 3.78055 16.5574C3.24919 17.0888 2.95068 17.8094 2.95068 18.5609V28.4775C2.95068 29.229 3.24919 29.9497 3.78055 30.481C4.3119 31.0124 5.03257 31.3109 5.78402 31.3109H10.034" stroke="#F5F5F6" stroke-width="3" stroke-linecap="round" stroke-linejoin="round"/>
</svg>
