<svg width="17" height="22" viewBox="0 0 17 22" fill="none" xmlns="http://www.w3.org/2000/svg">
<path d="M8.28906 16.2856C9.38906 16.2856 10.2891 15.3856 10.2891 14.2856C10.2891 13.1856 9.38906 12.2856 8.28906 12.2856C7.18906 12.2856 6.28906 13.1856 6.28906 14.2856C6.28906 15.3856 7.18906 16.2856 8.28906 16.2856ZM14.2891 7.28564H13.2891V5.28564C13.2891 2.52564 11.0491 0.285645 8.28906 0.285645C5.52906 0.285645 3.28906 2.52564 3.28906 5.28564V7.28564H2.28906C1.18906 7.28564 0.289062 8.18564 0.289062 9.28564V19.2856C0.289062 20.3856 1.18906 21.2856 2.28906 21.2856H14.2891C15.3891 21.2856 16.2891 20.3856 16.2891 19.2856V9.28564C16.2891 8.18564 15.3891 7.28564 14.2891 7.28564ZM5.18906 5.28564C5.18906 3.57564 6.57906 2.18564 8.28906 2.18564C9.99906 2.18564 11.3891 3.57564 11.3891 5.28564V7.28564H5.18906V5.28564ZM14.2891 19.2856H2.28906V9.28564H14.2891V19.2856Z" fill="#A2A2A7"/>
</svg>
