<svg width="19" height="4" viewBox="0 0 19 4" fill="none" xmlns="http://www.w3.org/2000/svg">
<path d="M4.57603 1.93694C4.57603 3.00668 3.70885 3.87388 2.63909 3.87388C1.56933 3.87388 0.702148 3.00668 0.702148 1.93694C0.702148 0.867199 1.56933 0 2.63909 0C3.70885 0 4.57603 0.867199 4.57603 1.93694Z" fill="#161722"/>
<path d="M11.3553 1.93694C11.3553 3.00668 10.4881 3.87388 9.41838 3.87388C8.34863 3.87388 7.48144 3.00668 7.48144 1.93694C7.48144 0.867199 8.34863 0 9.41838 0C10.4881 0 11.3553 0.867199 11.3553 1.93694Z" fill="#161722"/>
<path d="M16.1977 3.87388C17.2674 3.87388 18.1346 3.00668 18.1346 1.93694C18.1346 0.867199 17.2674 0 16.1977 0C15.1279 0 14.2607 0.867199 14.2607 1.93694C14.2607 3.00668 15.1279 3.87388 16.1977 3.87388Z" fill="#161722"/>
</svg>
