<svg width="21" height="23" viewBox="0 0 21 23" fill="none" xmlns="http://www.w3.org/2000/svg">
<path d="M6.84504 9.1711C6.5587 9.1711 6.32659 9.40135 6.32659 9.68537V10.7139C6.32659 10.9979 6.5587 11.2282 6.84504 11.2282H14.1034C14.3897 11.2282 14.6218 10.9979 14.6218 10.7139V9.68537C14.6218 9.40135 14.3897 9.1711 14.1034 9.1711H6.84504Z" fill="#979797"/>
<path fill-rule="evenodd" clip-rule="evenodd" d="M2.17897 0.942871C1.03364 0.942871 0.105164 1.86385 0.105164 2.99993V16.3708C0.105164 17.5069 1.03364 18.4279 2.17897 18.4279H6.88658L9.68393 21.6944C10.098 22.178 10.8504 22.178 11.2645 21.6944L14.0618 18.4279H18.7694C19.9148 18.4279 20.8432 17.5069 20.8432 16.3708V2.99993C20.8432 1.86385 19.9148 0.942871 18.7694 0.942871H2.17897ZM2.17897 16.3708V2.99993H18.7694V16.3708H13.5887C13.2838 16.3708 12.9944 16.5039 12.7974 16.7347L10.4742 19.4564L8.15103 16.7347C7.95401 16.5039 7.66457 16.3708 7.35968 16.3708H2.17897Z" fill="#979797"/>
</svg>
