<svg width="23" height="15" viewBox="0 0 23 15" fill="none" xmlns="http://www.w3.org/2000/svg">
<path fill-rule="evenodd" clip-rule="evenodd" d="M10.2891 13.2856C10.2891 13.8379 9.84135 14.2856 9.28906 14.2856L1.28906 14.2856C0.736779 14.2856 0.289063 13.8379 0.289064 13.2856C0.289064 12.7334 0.736779 12.2856 1.28906 12.2856L9.28906 12.2856C9.84135 12.2856 10.2891 12.7334 10.2891 13.2856Z" fill="#161722"/>
<path fill-rule="evenodd" clip-rule="evenodd" d="M10.2891 1.28564C10.2891 1.83793 9.84135 2.28564 9.28906 2.28564L1.28906 2.28564C0.736779 2.28564 0.289063 1.83793 0.289064 1.28564C0.289064 0.733359 0.736779 0.285644 1.28906 0.285644L9.28906 0.285644C9.84135 0.285644 10.2891 0.73336 10.2891 1.28564Z" fill="#161722"/>
<path fill-rule="evenodd" clip-rule="evenodd" d="M10.2891 7.28564C10.2891 7.83793 9.84135 8.28564 9.28906 8.28564L1.28906 8.28564C0.736779 8.28564 0.289063 7.83793 0.289064 7.28564C0.289064 6.73336 0.736779 6.28564 1.28906 6.28564L9.28906 6.28564C9.84135 6.28564 10.2891 6.73336 10.2891 7.28564Z" fill="#161722"/>
<path fill-rule="evenodd" clip-rule="evenodd" d="M22.2891 13.2856C22.2891 13.8379 21.8413 14.2856 21.2891 14.2856L13.2891 14.2856C12.7368 14.2856 12.2891 13.8379 12.2891 13.2856C12.2891 12.7334 12.7368 12.2856 13.2891 12.2856L21.2891 12.2856C21.8413 12.2856 22.2891 12.7334 22.2891 13.2856Z" fill="#161722"/>
<path fill-rule="evenodd" clip-rule="evenodd" d="M22.2891 1.28564C22.2891 1.83793 21.8413 2.28564 21.2891 2.28564L13.2891 2.28564C12.7368 2.28564 12.2891 1.83793 12.2891 1.28564C12.2891 0.733359 12.7368 0.285644 13.2891 0.285644L21.2891 0.285644C21.8413 0.285644 22.2891 0.73336 22.2891 1.28564Z" fill="#161722"/>
<path fill-rule="evenodd" clip-rule="evenodd" d="M22.2891 7.28564C22.2891 7.83793 21.8413 8.28564 21.2891 8.28564L13.2891 8.28564C12.7368 8.28564 12.2891 7.83793 12.2891 7.28564C12.2891 6.73336 12.7368 6.28564 13.2891 6.28564L21.2891 6.28564C21.8413 6.28564 22.2891 6.73336 22.2891 7.28564Z" fill="#161722"/>
</svg>
