<svg width="35" height="35" viewBox="0 0 35 35" fill="none" xmlns="http://www.w3.org/2000/svg">
<circle cx="17.1277" cy="17.5342" r="15.5" stroke="white" stroke-width="3"/>
<circle cx="11.1123" cy="13.6109" r="2.09231" fill="white"/>
<circle cx="22.6199" cy="13.6109" r="2.09231" fill="white"/>
<path d="M10.5891 26.1644C10.5891 20.848 22.1491 17.7067 24.1891 26.1644" stroke="white" stroke-width="3" stroke-linecap="round" stroke-linejoin="round"/>
<path d="M21.016 22.9924C20.95 21.3189 22.3616 19.1104 23.2226 17.7956C23.8542 18.2612 26.5463 21.2207 26.2466 22.9494C26.1467 23.5256 25.1156 25.365 23.5974 25.2205C22.0793 25.076 21.0675 24.299 21.016 22.9924Z" fill="white"/>
<path d="M21.016 22.9924C21.0675 24.299 22.0793 25.076 23.5974 25.2205M23.2226 17.7956C22.3616 19.1104 20.95 21.3189 21.016 22.9924C21.0675 24.299 22.0793 25.076 23.5974 25.2205C25.1156 25.365 26.1467 23.5256 26.2466 22.9494C26.5463 21.2207 23.8542 18.2612 23.2226 17.7956Z" stroke="white" stroke-width="3"/>
</svg>
